<?xml version="1.0" standalone="no"?><!DOCTYPE svg PUBLIC "-//W3C//DTD SVG 1.1//EN" "http://www.w3.org/Graphics/SVG/1.1/DTD/svg11.dtd"><svg t="1561597196347" class="icon" viewBox="0 0 1024 1024" version="1.1" xmlns="http://www.w3.org/2000/svg" p-id="3831" xmlns:xlink="http://www.w3.org/1999/xlink" width="200" height="200"><defs><style type="text/css"></style></defs><path d="M999.796364 432.104727C961.489455 200.192 758.923636 23.272727 514.792727 23.272727h-1.954909c-211.339636 0.535273-403.781818 133.515636-465.803636 334.429091C-56.552727 693.294545 193.024 1000.727273 514.792727 1000.727273c107.008 0 206.010182-34.001455 286.696728-91.717818 34.583273-24.715636 37.306182-75.077818 7.191272-105.029819L292.189091 290.746182a35.211636 35.211636 0 0 0-49.640727 0 34.769455 34.769455 0 0 0 0 49.338182l516.235636 513.489454c-88.110545 62.370909-195.723636 88.482909-305.943273 72.983273a413.044364 413.044364 0 0 1-199.726545-86.016c-136.192-108.916364-191.208727-280.948364-141.730909-453.12C161.931636 211.479273 328.564364 93.602909 512.581818 93.090909h2.234182c206.894545 0 381.44 146.734545 415.511273 349.090909h-0.116364s-374.737455 0.628364-377.064727 1.256727h-0.046546A34.862545 34.862545 0 0 0 526.894545 477.090909c0 19.269818 15.709091 34.909091 35.095273 34.909091H930.210909c42.821818 0 76.544-37.934545 69.585455-79.895273" p-id="3832"></path></svg>