<?xml version="1.0" standalone="no"?><!DOCTYPE svg PUBLIC "-//W3C//DTD SVG 1.1//EN" "http://www.w3.org/Graphics/SVG/1.1/DTD/svg11.dtd"><svg t="1561597279418" class="icon" viewBox="0 0 1024 1024" version="1.1" xmlns="http://www.w3.org/2000/svg" p-id="4411" xmlns:xlink="http://www.w3.org/1999/xlink" width="200" height="200"><defs><style type="text/css"></style></defs><path d="M179.2 962.56c0 20.48-17.92 38.4-38.4 38.4S102.4 985.6 102.4 962.56V64C102.4 43.52 120.32 25.6 140.8 25.6S179.2 43.52 179.2 64v898.56z m174.08-248.32c0 33.28-25.6 58.88-58.88 58.88h-7.68c-33.28 0-58.88-25.6-58.88-58.88s25.6-58.88 58.88-58.88h7.68c33.28 0 58.88 28.16 58.88 58.88z m89.6-199.68c0 33.28-25.6 58.88-58.88 58.88h-97.28c-33.28 0-58.88-25.6-58.88-58.88 0-33.28 25.6-58.88 58.88-58.88H384c30.72 0 58.88 25.6 58.88 58.88z m-156.16-140.8c-33.28 0-58.88-25.6-58.88-58.88C230.4 281.6 256 256 286.72 256h358.4c33.28 0 58.88 25.6 58.88 58.88s-25.6 58.88-58.88 58.88h-358.4z m0-202.24c-33.28 0-58.88-25.6-58.88-58.88 0-33.28 25.6-58.88 58.88-58.88h514.56c33.28 0 58.88 25.6 58.88 58.88 0 33.28-25.6 58.88-58.88 58.88H286.72z m688.64 488.96c15.36 0 28.16 15.36 28.16 33.28v56.32c0 15.36-12.8 33.28-28.16 33.28h-48.64c-5.12 10.24-10.24 30.72-20.48 46.08l35.84 33.28c10.24 10.24 10.24 28.16 0 40.96l-40.96 40.96c-10.24 10.24-28.16 10.24-38.4 0l-33.28-35.84c-15.36 7.68-35.84 15.36-46.08 20.48V972.8c0 15.36-15.36 28.16-33.28 28.16h-56.32c-15.36 0-33.28-12.8-33.28-28.16v-48.64c-10.24-5.12-30.72-10.24-46.08-20.48l-33.28 35.84c-10.24 10.24-28.16 10.24-40.96 0l-40.96-40.96c-10.24-10.24-10.24-28.16 0-38.4l35.84-33.28c-7.68-15.36-15.36-35.84-20.48-46.08h-48.64c-15.36 0-28.16-15.36-28.16-33.28V691.2c0-15.36 12.8-33.28 28.16-33.28h48.64c5.12-10.24 10.24-30.72 20.48-46.08l-35.84-33.28c-10.24-10.24-10.24-28.16 0-40.96l38.4-40.96c10.24-10.24 28.16-10.24 38.4 0l33.28 35.84c15.36-7.68 35.84-15.36 46.08-20.48v-48.64c0-15.36 15.36-28.16 33.28-28.16h56.32c15.36 0 33.28 12.8 33.28 28.16V512c10.24 5.12 30.72 10.24 46.08 20.48l33.28-35.84c10.24-10.24 28.16-10.24 40.96 0l40.96 38.4c10.24 10.24 10.24 28.16 0 38.4L906.24 614.4c7.68 15.36 15.36 35.84 20.48 46.08h48.64z m-253.44 186.88c69.12 0 128-56.32 128-128 0-69.12-56.32-128-128-128-69.12 0-128 56.32-128 128s58.88 128 128 128z" fill="#707070" p-id="4412"></path></svg>