<?xml version="1.0" standalone="no"?><!DOCTYPE svg PUBLIC "-//W3C//DTD SVG 1.1//EN" "http://www.w3.org/Graphics/SVG/1.1/DTD/svg11.dtd"><svg t="1561797362535" class="icon" viewBox="0 0 1024 1024" version="1.1" xmlns="http://www.w3.org/2000/svg" p-id="834" xmlns:xlink="http://www.w3.org/1999/xlink" width="200" height="200"><defs><style type="text/css"></style></defs><path d="M896 448H717.3c-8.5 0-16.6 3.4-22.6 9.4L640 512h-32c0-17.7-14.3-32-32-32H256c-17.7 0-32 14.3-32 32s14.3 32 32 32h72.6c-5.4 9.4-8.6 20.3-8.6 32v320c0 35.3 28.7 64 64 64h512c35.3 0 64-28.7 64-64V512c0-35.3-28.7-64-64-64z m0 416c0 17.7-14.3 32-32 32H416c-17.7 0-32-14.3-32-32V608c0-17.7 14.3-32 32-32h250.5l18.7-18.7 35.9-35.9c6-6 14.1-9.4 22.6-9.4H896v352z" fill="" p-id="835"></path><path d="M224 896h-64c-17.7 0-32-14.3-32-32V160c0-17.7 14.3-32 32-32h512c17.7 0 32 14.3 32 32v192c0 17.7 14.3 32 32 32s32-14.3 32-32V128c0-35.3-28.7-64-64-64H128c-35.3 0-64 28.7-64 64v768c0 35.3 28.7 64 64 64h96c17.7 0 32-14.3 32-32s-14.4-32-32-32z" fill="" p-id="836"></path><path d="M256 288c-17.7 0-32 14.3-32 32s14.3 32 32 32h320c17.7 0 32-14.3 32-32s-14.3-32-32-32H256zM768 640H512c-17.7 0-32 14.3-32 32s14.3 32 32 32h256c17.7 0 32-14.3 32-32s-14.3-32-32-32zM704 768H512c-17.7 0-32 14.3-32 32s14.3 32 32 32h192c17.7 0 32-14.3 32-32s-14.3-32-32-32z" fill="" p-id="837"></path></svg>