<?xml version="1.0" standalone="no"?><!DOCTYPE svg PUBLIC "-//W3C//DTD SVG 1.1//EN" "http://www.w3.org/Graphics/SVG/1.1/DTD/svg11.dtd"><svg t="1558918066557" class="icon" style="" viewBox="0 0 1024 1024" version="1.1" xmlns="http://www.w3.org/2000/svg" p-id="2358" xmlns:xlink="http://www.w3.org/1999/xlink" width="200" height="200"><defs><style type="text/css"></style></defs><path d="M457.728 528.384A199.68 199.68 0 0 0 563.2 350.208 194.56 194.56 0 0 0 373.76 153.6a194.56 194.56 0 0 0-189.952 196.608 199.68 199.68 0 0 0 107.52 178.688 244.224 244.224 0 0 0-215.552 246.272v13.824c0 36.864 24.064 59.392 73.216 70.144a870.4 870.4 0 0 0 163.84 8.704h135.168c127.488 0 237.056 0 237.056-78.848v-13.824a243.2 243.2 0 0 0-227.328-246.784z" fill="" p-id="2359"></path><path d="M850.944 204.8h-292.352a200.192 200.192 0 0 1 55.296 102.4h171.52a26.112 26.112 0 0 1 0 51.2h-168.96a204.8 204.8 0 0 1-18.944 74.752h187.904a26.112 26.112 0 0 1 0 51.2H563.2a191.488 191.488 0 0 1-51.2 38.4 227.328 227.328 0 0 1 112.128 36.352h161.792a26.112 26.112 0 0 1 0 51.2h-102.4a248.832 248.832 0 0 1 41.984 74.752h61.44a26.112 26.112 0 0 1 0 51.2h-51.2a256 256 0 0 1 3.072 32.256v13.824a60.416 60.416 0 0 1-37.888 57.344h149.504c23.552 0 41.984-35.84 41.984-79.872V287.232c0.512-44.032-18.432-82.432-41.472-82.432z" fill="" p-id="2360"></path></svg>