<?xml version="1.0" standalone="no"?><!DOCTYPE svg PUBLIC "-//W3C//DTD SVG 1.1//EN" "http://www.w3.org/Graphics/SVG/1.1/DTD/svg11.dtd"><svg t="1562717691559" class="icon" viewBox="0 0 1024 1024" version="1.1" xmlns="http://www.w3.org/2000/svg" p-id="1360" xmlns:xlink="http://www.w3.org/1999/xlink" width="200" height="200"><defs><style type="text/css"></style></defs><path d="M805.248 759.936l75.904 75.968a32 32 0 0 1-45.248 45.248l-75.968-75.904a384 384 0 1 1 45.248-45.248zM512 832A320 320 0 1 0 512 192a320 320 0 0 0 0 640zM320 416a32 32 0 0 1 32 32v192a32 32 0 1 1-64 0V448a32 32 0 0 1 32-32z m128-128a32 32 0 0 1 32 32v320a32 32 0 1 1-64 0V320a32 32 0 0 1 32-32z m128 192a32 32 0 0 1 32 32v128a32 32 0 1 1-64 0V512a32 32 0 0 1 32-32z m128-128a32 32 0 0 1 32 32v256a32 32 0 1 1-64 0V384a32 32 0 0 1 32-32z" p-id="1361"></path></svg>