<?xml version="1.0" standalone="no"?><!DOCTYPE svg PUBLIC "-//W3C//DTD SVG 1.1//EN" "http://www.w3.org/Graphics/SVG/1.1/DTD/svg11.dtd"><svg t="1570344367027" class="icon" viewBox="0 0 1070 1024" version="1.1" xmlns="http://www.w3.org/2000/svg" p-id="6952" xmlns:xlink="http://www.w3.org/1999/xlink" width="208.984375" height="200"><defs><style type="text/css"></style></defs><path d="M853.333333 352.298667V426.666667h-85.333333V301.098667l-276.693333-166.016-298.666667 179.2V832h277.077333v85.333333H149.930667a42.666667 42.666667 0 0 1-42.666667-42.666666V365.482667l-20.736 12.416L42.666667 304.768l426.666666-256c13.568-8.106667 30.378667-8.106667 43.946667 0l426.666667 256L896 377.898667l-42.666667-25.6z" fill="#1768E4" p-id="6953"></path><path d="M757.973333 885.333333c-94.848 0-150.186667-26.026667-160-38.357333v-29.226667c45.653333 17.92 103.722667 26.538667 160 26.538667 56.234667 0 114.346667-8.661333 160-26.538667v29.226667c-9.813333 12.330667-65.194667 38.357333-160 38.357333z m0-321.664c87.552 0 141.397333 22.186667 156.928 35.285334-15.530667 13.098667-69.376 35.285333-156.928 35.285333s-141.44-22.186667-156.928-35.285333c15.488-13.098667 69.376-35.285333 156.928-35.285334z m-160 129.365334c45.653333 17.92 103.722667 26.538667 160 26.538666 56.234667 0 114.346667-8.661333 160-26.538666v27.562666c-9.813333 12.330667-65.194667 38.4-160 38.4-94.848 0-150.186667-26.069333-160-38.4v-27.562666z m405.333334-94.08c0-82.858667-127.146667-120.618667-245.333334-120.618667s-245.333333 37.76-245.333333 120.618667v124.714666c0 0.554667 0.128 1.109333 0.170667 1.664h-0.170667v124.714667c0 82.858667 127.146667 120.618667 245.333333 120.618667s245.333333-37.76 245.333334-120.618667V725.333333h-0.170667c0-0.554667 0.170667-1.109333 0.170667-1.664v-124.714666z" fill="#8BB3F1" p-id="6954"></path></svg>