<?xml version="1.0" standalone="no"?><!DOCTYPE svg PUBLIC "-//W3C//DTD SVG 1.1//EN" "http://www.w3.org/Graphics/SVG/1.1/DTD/svg11.dtd"><svg t="1563775051543" class="icon" viewBox="0 0 1024 1024" version="1.1" xmlns="http://www.w3.org/2000/svg" p-id="1416" xmlns:xlink="http://www.w3.org/1999/xlink" width="200" height="200"><defs><style type="text/css"></style></defs><path d="M683.8272 665.6h-445.952C219.648 665.6 204.8 642.56 204.8 614.4s14.848-51.2 33.0752-51.2h445.8496c18.2272 0 33.0752 23.04 33.0752 51.2 0.1024 28.16-14.7456 51.2-32.9728 51.2zM528.2816 819.2H239.8208C220.5184 819.2 204.8 796.16 204.8 768s15.7184-51.2 35.0208-51.2h288.3584c19.3024 0 35.0208 23.04 35.0208 51.2 0.1024 28.3648-15.616 51.2-34.9184 51.2zM485.632 512a29.696 29.696 0 0 1-9.2672-1.536c-10.496-3.3792-19.0464-12.4416-23.2448-24.3712l-45.9264-132.352-148.1728 114.8416c-16.1792 12.5952-38.0928 7.0656-48.5888-12.4416-10.496-19.456-5.888-45.568 10.3936-58.112l183.5008-142.336a30.4128 30.4128 0 0 1 29.5424-4.864 37.6832 37.6832 0 0 1 22.016 24.064l44.7488 128.768L711.68 213.3504c15.4624-14.08 37.5808-10.3424 49.2032 8.192 11.6736 18.432 8.6528 44.9024-6.8096 58.88l-247.296 223.1296a31.5904 31.5904 0 0 1-21.1456 8.448z" fill="#151515" p-id="1417"></path><path d="M743.936 409.6a43.264 43.264 0 0 1-8.2944-0.8704 36.1984 36.1984 0 0 1-28.0064-43.3664l29.0304-125.696-139.9296-13.568a36.5568 36.5568 0 0 1-33.3312-39.7312 37.2736 37.2736 0 0 1 40.5504-32.6144l181.76 17.5104a37.4784 37.4784 0 0 1 26.4704 14.8992 35.7888 35.7888 0 0 1 6.144 29.2352l-38.2976 165.8368a36.7616 36.7616 0 0 1-36.1472 28.3648z" fill="#151515" p-id="1418"></path></svg>