<?xml version="1.0" standalone="no"?><!DOCTYPE svg PUBLIC "-//W3C//DTD SVG 1.1//EN" "http://www.w3.org/Graphics/SVG/1.1/DTD/svg11.dtd"><svg t="1561596880927" class="icon" viewBox="0 0 1076 1024" version="1.1" xmlns="http://www.w3.org/2000/svg" p-id="1011" xmlns:xlink="http://www.w3.org/1999/xlink" width="210.15625" height="200"><defs><style type="text/css"></style></defs><path d="M537.6 1021.44a430.08 430.08 0 1 1 0-860.16 430.08 430.08 0 0 1 0 860.16z m0-86.016a344.064 344.064 0 1 0 0-688.128 344.064 344.064 0 0 0 0 688.128z" fill="#64676F" p-id="1012"></path><path d="M543.5392 189.184m-188.16 0a188.16 188.16 0 1 0 376.32 0 188.16 188.16 0 1 0-376.32 0Z" fill="#64676F" p-id="1013"></path><path d="M887.04 672m-188.16 0a188.16 188.16 0 1 0 376.32 0 188.16 188.16 0 1 0-376.32 0Z" fill="#64676F" p-id="1014"></path><path d="M188.16 672m-188.16 0a188.16 188.16 0 1 0 376.32 0 188.16 188.16 0 1 0-376.32 0Z" fill="#64676F" p-id="1015"></path></svg>