<?xml version="1.0" standalone="no"?><!DOCTYPE svg PUBLIC "-//W3C//DTD SVG 1.1//EN" "http://www.w3.org/Graphics/SVG/1.1/DTD/svg11.dtd"><svg t="1565591294955" class="icon" viewBox="0 0 1024 1024" version="1.1" xmlns="http://www.w3.org/2000/svg" p-id="15108" xmlns:xlink="http://www.w3.org/1999/xlink" width="200" height="200"><defs><style type="text/css"></style></defs><path d="M512 512m-512 0a512 512 0 1 0 1024 0 512 512 0 1 0-1024 0Z" fill="#48AAE0" p-id="15109"></path><path d="M411.6992 419.6864v286.208a21.76 21.76 0 0 0 35.584 16.8448l234.3424-192.4608a21.76 21.76 0 0 0-5.6832-37.0176L441.5488 399.5136a21.76 21.76 0 0 0-29.8496 20.1728z" fill="#FFFFFF" p-id="15110"></path><path d="M411.6992 606.3616v-286.208a21.76 21.76 0 0 1 35.584-16.7936l234.3424 192.4096a21.8112 21.8112 0 0 1-5.6832 37.0688l-234.3936 93.5424a21.8112 21.8112 0 0 1-29.8496-20.0192z" fill="#FFFFFF" p-id="15111"></path></svg>