<?xml version="1.0" standalone="no"?><!DOCTYPE svg PUBLIC "-//W3C//DTD SVG 1.1//EN" "http://www.w3.org/Graphics/SVG/1.1/DTD/svg11.dtd"><svg t="1565591578393" class="icon" viewBox="0 0 1024 1024" version="1.1" xmlns="http://www.w3.org/2000/svg" p-id="22282" xmlns:xlink="http://www.w3.org/1999/xlink" width="200" height="200"><defs><style type="text/css"></style></defs><path d="M155.904 1022.1056c-27.136 0-52.0192-13.568-66.6624-36.608A80.5376 80.5376 0 0 1 76.8 942.6432V79.104C76.8 35.4816 112.2816 0 155.904 0c15.0016 0 29.696 4.4544 42.496 12.4416L874.7008 444.416c36.5568 23.3984 47.616 72.5504 24.1152 109.5168a84.992 84.992 0 0 1-24.1152 24.1152l-676.352 431.6672c-12.8 8.2432-27.4432 12.288-42.496 12.288z" fill="#4A4A4A" p-id="22283"></path><path d="M155.904 52.5824a26.2144 26.2144 0 0 0-26.368 26.368v863.9488c0 5.12 1.4848 9.8304 4.096 14.2848a27.136 27.136 0 0 0 36.5568 7.9872l676.3008-432.0256a27.4432 27.4432 0 0 0 7.9872-7.9872 26.9824 26.9824 0 0 0-7.9872-36.608L170.1376 56.6784a29.2352 29.2352 0 0 0-14.2336-4.096z" fill="#55CDFD" p-id="22284"></path></svg>