<?xml version="1.0" standalone="no"?><!DOCTYPE svg PUBLIC "-//W3C//DTD SVG 1.1//EN" "http://www.w3.org/Graphics/SVG/1.1/DTD/svg11.dtd"><svg t="1559724476119" class="icon" style="" viewBox="0 0 1478 1024" version="1.1" xmlns="http://www.w3.org/2000/svg" p-id="3663" xmlns:xlink="http://www.w3.org/1999/xlink" width="288.671875" height="200"><defs><style type="text/css"></style></defs><path d="M1273.10448398 636.76403698H792.22399808L730.84934953 369.68315079a33.72233422 33.72233422 0 0 0-67.44466847 0l-60.3629783 267.41811017H123.84733423a33.72233422 33.72233422 0 0 0 0 67.44466846h465.36821219l-42.15291779 187.1589548a33.72233422 33.72233422 0 0 0 33.72233423 42.15291777h236.05633878a33.72233422 33.72233422 0 0 0 33.72233422-42.15291778l-42.15291778-187.15895479h465.36821219a33.72233422 33.72233422 0 0 0 0-67.44466846zM775.02560782 865.73868643h-153.09939744l36.42012104-161.86720413 15.17505057-67.44466845L697.12701529 528.51534497l24.95452753 109.93480939 15.17505056 67.44466845z" p-id="3664"></path><path d="M319.09964944 200.7342565m-110.6092565 0a110.6092565 110.6092565 0 1 0 221.21851218 0 110.6092565 110.6092565 0 1 0-221.21851218 0Z" p-id="3665"></path><path d="M414.1966314 315.72741552a138.93601712 138.93601712 0 0 1-189.18229449 1e-8 126.12153022 126.12153022 0 0 0-60.70020144 106.89979944v146.35493042h309.9082511V422.62721497a126.12153022 126.12153022 0 0 0-60.02575517-106.89979944z" p-id="3666"></path><path d="M1077.85216876 200.7342565m-110.6092565 0a110.6092565 110.6092565 0 1 0 221.21851217 0 110.6092565 110.6092565 0 1 0-221.21851217 0Z" p-id="3667"></path><path d="M1172.94915072 315.72741552a138.93601712 138.93601712 0 0 1-190.53118789 1e-8 126.12153022 126.12153022 0 0 0-59.68853119 106.89979944v146.35493042h309.9082511V422.62721497a126.12153022 126.12153022 0 0 0-59.68853202-106.89979944z" p-id="3668"></path></svg>