<?xml version="1.0" standalone="no"?><!DOCTYPE svg PUBLIC "-//W3C//DTD SVG 1.1//EN" "http://www.w3.org/Graphics/SVG/1.1/DTD/svg11.dtd"><svg t="1551765685652" class="icon" style="" viewBox="0 0 1024 1024" version="1.1" xmlns="http://www.w3.org/2000/svg" p-id="521" xmlns:xlink="http://www.w3.org/1999/xlink" width="200" height="200"><defs><style type="text/css"></style></defs><path d="M566.272 217.088c-11.264-7.168-24.576-11.264-41.984-11.264-4.096 0-8.192 0-12.288 1.024-45.056 7.168-74.752 48.128-93.184 87.04-8.192 18.432-15.36 37.888-22.528 56.32-3.072 9.216-7.168 17.408-10.24 26.624 0 1.024-5.12 18.432-6.144 18.432h-46.08c-6.144 0-11.264 5.12-11.264 11.264 0 6.144 5.12 11.264 11.264 11.264h39.936l-22.528 96.256c-22.528 107.52-53.248 230.4-60.416 251.904-7.168 22.528-17.408 33.792-31.744 33.792-3.072 0-5.12-1.024-7.168-2.048-2.048-1.024-3.072-3.072-3.072-5.12s1.024-5.12 4.096-9.216c3.072-4.096 4.096-9.216 4.096-13.312 0-8.192-3.072-15.36-8.192-20.48-6.144-5.12-12.288-7.168-19.456-7.168s-14.336 3.072-20.48 8.192c-1.024 7.168-4.096 14.336-4.096 23.552 0 12.288 5.12 22.528 15.36 31.744 10.24 9.216 23.552 13.312 40.96 13.312 27.648 0 52.224-12.288 70.656-33.792 11.264-13.312 19.456-28.672 26.624-45.056 22.528-50.176 34.816-105.472 48.128-158.72 13.312-54.272 25.6-108.544 36.864-162.816h44.032c6.144 0 11.264-5.12 11.264-11.264 0-6.144-5.12-11.264-11.264-11.264h-40.96c22.528-84.992 48.128-143.36 53.248-151.552 8.192-14.336 17.408-21.504 27.648-21.504 4.096 0 6.144 1.024 7.168 3.072 1.024 2.048 2.048 4.096 2.048 5.12 0 1.024-1.024 4.096-4.096 9.216-3.072 5.12-4.096 10.24-4.096 15.36 0 7.168 3.072 13.312 8.192 18.432s12.288 8.192 19.456 8.192 14.336-3.072 19.456-8.192 8.192-12.288 8.192-21.504c-1.024-17.408-6.144-28.672-17.408-35.84z m204.8 258.048c16.384 0 48.128-13.312 48.128-56.32s-30.72-45.056-40.96-45.056c-18.432 0-37.888 13.312-54.272 41.984-16.384 28.672-34.816 61.44-34.816 61.44h-1.024c-4.096-20.48-7.168-36.864-9.216-45.056-3.072-17.408-23.552-56.32-66.56-56.32s-81.92 24.576-81.92 24.576c-7.168 4.096-12.288 12.288-12.288 21.504 0 14.336 11.264 25.6 25.6 25.6 4.096 0 8.192-1.024 11.264-3.072 0 0 32.768-18.432 38.912 0 2.048 5.12 4.096 11.264 6.144 17.408 8.192 27.648 15.36 60.416 22.528 90.112L596.992 593.92s-31.744-11.264-48.128-11.264-48.128 13.312-48.128 56.32 30.72 45.056 40.96 45.056c18.432 0 37.888-13.312 54.272-41.984 16.384-28.672 34.816-61.44 34.816-61.44 5.12 26.624 10.24 48.128 13.312 56.32 10.24 30.72 34.816 48.128 67.584 48.128 0 0 33.792 0 72.704-22.528 9.216-4.096 16.384-13.312 16.384-23.552 0-14.336-11.264-25.6-25.6-25.6-4.096 0-8.192 1.024-11.264 3.072 0 0-27.648 15.36-37.888 3.072-7.168-13.312-12.288-30.72-17.408-52.224-4.096-19.456-9.216-41.984-13.312-63.488l28.672-40.96c-1.024 1.024 30.72 12.288 47.104 12.288z" p-id="522"></path></svg>