<?xml version="1.0" standalone="no"?><!DOCTYPE svg PUBLIC "-//W3C//DTD SVG 1.1//EN" "http://www.w3.org/Graphics/SVG/1.1/DTD/svg11.dtd"><svg t="1552287283764" class="icon" style="" viewBox="0 0 1024 1024" version="1.1" xmlns="http://www.w3.org/2000/svg" p-id="1424" xmlns:xlink="http://www.w3.org/1999/xlink" width="200" height="200"><defs><style type="text/css"></style></defs><path d="M478.144 947.328c-120.448 0-176.96 0.128-297.408-0.064-104.384-0.128-146.432-42.56-146.496-147.264 0-195.008-0.128-389.952 0.064-584.96 0.064-92.224 44.48-137.792 137.152-137.984 247.04-0.576 430.144-0.64 677.184 0.064 95.104 0.256 140.992 47.36 141.056 141.696 0.128 196.032 0.128 392 0 588.032-0.064 95.872-44.16 140.096-140.992 140.416-123.52 0.384-247.04 0.064-370.56 0.064z m375.296-51.52c62.016-0.128 84.224-22.72 84.288-85.248v-596.992c0-62.528-22.272-85.312-84.16-85.312-248.96-0.128-433.984-0.128-682.944 0-62.016 0.064-84.224 22.72-84.288 85.248v596.992c0 62.592 22.208 85.248 84.16 85.312 123.456 0.192 182.976 0.064 306.432 0.064 125.504 0 251.008 0.128 376.512-0.064z" p-id="1425"></path><path d="M693.184 503.04a83.008 83.008 0 1 1-0.448 55.424c-139.072-8.192-206.848-91.328-195.328-239.424a82.944 82.944 0 1 1 54.272 18.816c-4.544 106.496 40.448 158.656 141.504 165.184z m-170.88-248.128a27.584 27.584 0 1 0 55.232 0.064 27.584 27.584 0 0 0-55.232-0.064z m221.184 276.48a27.584 27.584 0 1 0 55.232 0.064 27.584 27.584 0 0 0-55.232-0.064z m-412.672-10.432a83.008 83.008 0 1 1 0.448-55.296c139.072 8.128 206.848 91.328 195.328 239.36a82.944 82.944 0 1 1-54.208-18.816c4.48-106.56-40.512-158.72-141.568-165.248z m170.88 248.128a27.584 27.584 0 1 0-55.232-0.064 27.584 27.584 0 0 0 55.232 0.064z m-221.184-276.48a27.584 27.584 0 1 0-55.232-0.064 27.584 27.584 0 0 0 55.232 0.064z m0 0" p-id="1426"></path></svg>