<?xml version="1.0" standalone="no"?><!DOCTYPE svg PUBLIC "-//W3C//DTD SVG 1.1//EN" "http://www.w3.org/Graphics/SVG/1.1/DTD/svg11.dtd"><svg t="1605061138515" class="icon" viewBox="0 0 1024 1024" version="1.1" xmlns="http://www.w3.org/2000/svg" p-id="1917" xmlns:xlink="http://www.w3.org/1999/xlink" width="200" height="200"><defs><style type="text/css"></style></defs><path d="M988.05248 731.32544l-401.59232 241.00864c-11.10016 6.64064-25.67168 9.9584-40.1408 9.9584-14.52544 0-29.09696-3.31776-40.19712-9.9584l-401.5872-241.00864c-22.15424-13.2608-22.15424-34.88768 0-48.17408l68.096-40.83712 309.89824 185.94816c17.792 10.65472 40.39168 16.50688 63.78496 16.50688 23.34208 0 45.94176-5.85216 63.72864-16.50688l309.89824-185.94816 68.10112 40.83712c22.15936 13.28128 22.15936 34.91328 0.01024 48.17408z" fill="#2B3B94" p-id="1918"></path><path d="M988.05248 547.99872l-401.59232 240.94208c-11.10016 6.64064-25.67168 9.984-40.1408 9.984-14.52544 0-29.09696-3.34336-40.19712-9.984l-401.5872-240.94208c-22.15424-13.33248-22.15424-34.88768 0-48.22016l68.096-40.86272 309.89824 185.94816c17.792 10.65472 40.39168 16.55296 63.78496 16.55296 23.34208 0 45.94176-5.89824 63.72864-16.55296l309.89824-185.94816 68.10112 40.86272c22.15936 13.33248 22.15936 34.8928 0.01024 48.22016z" fill="#2B3B94" p-id="1919"></path><path d="M988.05248 364.60032l-401.59232 241.01376c-11.10016 6.61504-25.67168 9.9584-40.1408 9.9584-14.52544 0-29.09696-3.34336-40.19712-9.9584L104.53504 364.60032c-22.15424-13.25568-22.15424-34.88768 0-48.17408l401.5872-240.98304c11.10016-6.64064 25.67168-9.96352 40.19712-9.96352 14.46912 0 29.04064 3.31776 40.1408 9.96352l401.59232 240.98304c22.14912 13.2864 22.14912 34.9184 0 48.17408z" fill="#2B3B94" p-id="1920"></path></svg>