<?xml version="1.0" standalone="no"?><!DOCTYPE svg PUBLIC "-//W3C//DTD SVG 1.1//EN" "http://www.w3.org/Graphics/SVG/1.1/DTD/svg11.dtd"><svg t="1561597096289" class="icon" viewBox="0 0 1024 1024" version="1.1" xmlns="http://www.w3.org/2000/svg" p-id="2914" xmlns:xlink="http://www.w3.org/1999/xlink" width="200" height="200"><defs><style type="text/css"></style></defs><path d="M631.466667 819.2l142.222222 91.022222c22.755556 8.533333 36.977778 31.288889 36.977778 56.888889 2.844444 25.6-14.222222 48.355556-36.977778 56.888889H250.311111c-31.288889-11.377778-45.511111-48.355556-34.133333-79.644444 5.688889-14.222222 17.066667-28.444444 34.133333-34.133334l142.222222-91.022222c-219.022222-65.422222-341.333333-301.511111-275.911111-520.533333C182.044444 76.8 412.444444-48.355556 631.466667 19.911111c219.022222 65.422222 341.333333 301.511111 275.911111 520.533333-39.822222 133.688889-145.066667 238.933333-275.911111 278.755556zM512 71.111111C321.422222 71.111111 167.822222 227.555556 167.822222 420.977778 167.822222 614.4 324.266667 768 512 768c190.577778 0 344.177778-156.444444 344.177778-349.866667 0-193.422222-153.6-347.022222-344.177778-347.022222z m0 537.6c-102.4 0-187.733333-85.333333-187.733333-190.577778S406.755556 227.555556 512 227.555556s187.733333 85.333333 187.733333 190.577777-85.333333 190.577778-187.733333 190.577778zM509.155556 284.444444c-73.955556 0-130.844444 62.577778-130.844445 136.533334s59.733333 133.688889 133.688889 133.688889 130.844444-59.733333 130.844444-133.688889c0-76.8-56.888889-136.533333-133.688888-136.533334z" fill="#666666" p-id="2915"></path></svg>