<?xml version="1.0" standalone="no"?><!DOCTYPE svg PUBLIC "-//W3C//DTD SVG 1.1//EN" "http://www.w3.org/Graphics/SVG/1.1/DTD/svg11.dtd"><svg t="1562633333913" class="icon" viewBox="0 0 1024 1024" version="1.1" xmlns="http://www.w3.org/2000/svg" p-id="1978" xmlns:xlink="http://www.w3.org/1999/xlink" width="200" height="200"><defs><style type="text/css"></style></defs><path d="M639.1552 394.5472v0.06656a242.7136 242.7136 0 0 0-24.82176-21.5296c-19.46112-19.03616-50.67264-18.69824-69.71904 0.76288a49.28 49.28 0 0 0-2.28352 66.43712 47.3088 47.3088 0 0 0 12.17024 10.52672c4.64896 3.82976 9.23136 7.59296 13.47072 11.89888l4.10112 4.10112c51.07712 50.9952 35.82976 138.97728-15.31392 190.04416l-218.12736 218.07104c-51.24096 51.10784-134.1952 51.10784-185.44128 0l-4.10624-4.10112c-51.10272-51.18464-51.10272-134.07232 0-185.25696l96.41472-96.32256c23.22432-18.23232 27.26912-51.84 9.02656-75.0592a53.4784 53.4784 0 0 0-42.26048-20.43904 53.34016 53.34016 0 0 0-30.08512 9.22624l-0.13824-0.2048-1.02912 1.024a53.9136 53.9136 0 0 0-10.25536 9.50272L70.656 606.9504c-94.20288 94.70976-94.20288 247.7056 0 342.42048l4.10112 4.10112c94.71488 94.03904 247.59296 94.03904 342.30272 0l218.12736-218.20928c94.01856-94.13632 102.02112-242.61632 7.99744-336.68096l-4.02944-4.03456z m314.33728-319.85664h0.06656l-4.10112-4.10112c-94.68416-94.11584-247.61856-94.11584-342.30272 0L389.02784 288.79872c-94.1568 94.13632-99.3536 230.03136-5.1968 324.23424l4.03456 3.96288a250.58816 250.58816 0 0 0 13.19936 12.17024 48.40448 48.40448 0 0 0 11.42272 9.29792h0.13824a46.57152 46.57152 0 0 0 65.09568-60.64128c-6.15424-13.80864-17.64352-22.21568-25.64096-30.14656l-3.96288-3.96288c-51.1488-51.13344-31.72864-125.37344 19.42016-176.50688l218.19392-218.07104c51.17952-51.12832 134.12352-51.12832 185.30816 0l4.10112 4.03456c51.11808 51.23072 51.11808 134.16448 0 185.3952l-96.13824 96.11776c-24.28416 16.42496-30.65344 49.41824-14.22336 73.69216 16.42496 24.27904 49.42848 30.6432 73.71264 14.21824 0 0.13824 0 0.2048 0.13824 0.34304l1.50528-1.36704a53.4016 53.4016 0 0 0 12.10368-11.14112l101.20192-93.45024c94.18752-94.65344 94.21824-247.6032 0.0512-342.28736z" p-id="1979"></path></svg>