<?xml version="1.0" standalone="no"?><!DOCTYPE svg PUBLIC "-//W3C//DTD SVG 1.1//EN" "http://www.w3.org/Graphics/SVG/1.1/DTD/svg11.dtd"><svg t="1561597041813" class="icon" viewBox="0 0 1024 1024" version="1.1" xmlns="http://www.w3.org/2000/svg" p-id="2573" xmlns:xlink="http://www.w3.org/1999/xlink" width="200" height="200"><defs><style type="text/css"></style></defs><path d="M862.2 134.7H727.6V201h-67.4v-66.3H390.7V201h-67.4v-66.3H161.8c-44.7 0-81 36.3-81 81v646.4c0 44.7 36.3 81 81 81h700.3c44.7 0 81-36.3 81-81V215.7c0.1-44.7-36.2-81-80.9-81zM357 744.2h-67.4c-18.8 0-33.7-14.6-33.7-33.2s14.8-33.2 33.7-33.2H357c18.8 0 33.7 14.6 33.7 33.2 0 18.5-14.8 33.2-33.7 33.2z m0-132.7h-67.4c-18.8 0-33.7-14.6-33.7-33.2s14.8-33.2 33.7-33.2H357c18.8 0 33.7 14.6 33.7 33.2s-14.8 33.2-33.7 33.2z m202.2 132.7h-67.4c-18.8 0-33.7-14.6-33.7-33.2s14.8-33.2 33.7-33.2h67.4c18.8 0 33.7 14.6 33.7 33.2-0.1 18.5-14.9 33.2-33.7 33.2z m0-132.7h-67.4c-18.8 0-33.7-14.6-33.7-33.2s14.8-33.2 33.7-33.2h67.4c18.8 0 33.7 14.6 33.7 33.2-0.1 18.6-14.9 33.2-33.7 33.2z m202.1 132.7h-67.4c-18.8 0-33.7-14.6-33.7-33.2s14.8-33.2 33.7-33.2h67.4c18.8 0 33.7 14.6 33.7 33.2-0.1 18.5-14.9 33.2-33.7 33.2z m0-132.7h-67.4c-18.8 0-33.7-14.6-33.7-33.2s14.8-33.2 33.7-33.2h67.4c18.8 0 33.7 14.6 33.7 33.2-0.1 18.6-14.9 33.2-33.7 33.2z m91.5-199H198.2c-16.6 0-29.8-14.6-29.8-33.2s13.1-33.2 29.8-33.2h654.6c16.6 0 29.8 14.6 29.8 33.2-0.1 18.6-13.2 33.2-29.8 33.2zM390.7 116c0-18.6-14.8-33.2-33.7-33.2-18.8 0-33.7 14.6-33.7 33.2v18h67.4v-18zM727.6 116c0-18.6-14.8-33.2-33.7-33.2-18.8 0-33.7 14.6-33.7 33.2v18h67.4v-18z" fill="#515151" p-id="2574"></path></svg>