<?xml version="1.0" standalone="no"?><!DOCTYPE svg PUBLIC "-//W3C//DTD SVG 1.1//EN" "http://www.w3.org/Graphics/SVG/1.1/DTD/svg11.dtd"><svg t="1559198937257" class="icon" style="" viewBox="0 0 1024 1024" version="1.1" xmlns="http://www.w3.org/2000/svg" p-id="1073" xmlns:xlink="http://www.w3.org/1999/xlink" width="200" height="200"><defs><style type="text/css"></style></defs><path d="M492.311631 512A256.354462 256.354462 0 0 1 236.311631 256C236.311631 114.884923 351.0784 0 492.311631 0S748.311631 114.884923 748.311631 256 633.426708 512 492.311631 512zM20.562708 1024A20.992 20.992 0 0 1 0.003938 1002.614154v-172.701539C0.003938 697.816615 102.955323 590.769231 230.010092 590.769231h563.987693c127.054769 0 230.006154 107.047385 230.006153 239.143384v172.701539a20.992 20.992 0 0 1-20.676923 21.385846H20.562708z m825.147077-294.360615A70.301538 70.301538 0 0 0 748.311631 727.473231a70.301538 70.301538 0 0 0-97.437539 2.166154A71.128615 71.128615 0 0 0 630.157785 779.894154c0 18.904615 7.483077 37.021538 20.716307 50.254769l81.604923 82.116923a22.016 22.016 0 0 0 31.625847 0l81.604923-82.038154c13.272615-13.272615 20.755692-31.389538 20.755692-50.294154 0-18.904615-7.483077-37.021538-20.755692-50.294153z" p-id="1074" fill="#2c2c2c"></path></svg>