<?xml version="1.0" standalone="no"?><!DOCTYPE svg PUBLIC "-//W3C//DTD SVG 1.1//EN" "http://www.w3.org/Graphics/SVG/1.1/DTD/svg11.dtd"><svg t="1566974251078" class="icon" viewBox="0 0 1024 1024" version="1.1" xmlns="http://www.w3.org/2000/svg" p-id="1135" xmlns:xlink="http://www.w3.org/1999/xlink" width="200" height="200"><defs><style type="text/css"></style></defs><path d="M162.909091 816.872727H93.090909V146.618182C93.090909 130.327273 107.054545 116.363636 123.345455 116.363636h6.981818c18.618182-2.327273 32.581818 13.963636 32.581818 30.254546v670.254545z" fill="#666666" p-id="1136"></path><path d="M912.290909 777.309091v9.309091c0 16.290909-13.963636 30.254545-30.254545 30.254545H95.418182v-69.818182h784.290909c18.618182 0 32.581818 13.963636 32.581818 30.254546zM474.763636 316.509091c11.636364 11.636364 11.636364 32.581818 0 44.218182l-183.854545 179.2c-11.636364 11.636364-32.581818 11.636364-44.218182 0s-11.636364-32.581818 0-44.218182l183.854546-179.2c11.636364-13.963636 30.254545-13.963636 44.218181 0z" fill="#666666" p-id="1137"></path><path d="M428.218182 316.509091c11.636364-11.636364 32.581818-11.636364 44.218182 0l183.854545 179.2c11.636364 11.636364 11.636364 32.581818 0 44.218182s-32.581818 11.636364-44.218182 0l-183.854545-179.2c-11.636364-13.963636-11.636364-32.581818 0-44.218182z" fill="#666666" p-id="1138"></path><path d="M609.745455 537.6c-11.636364-11.636364-11.636364-32.581818 0-44.218182l183.854545-179.2c11.636364-11.636364 32.581818-11.636364 44.218182 0s11.636364 32.581818 0 44.218182l-183.854546 179.2c-11.636364 13.963636-30.254545 13.963636-44.218181 0z" fill="#666666" p-id="1139"></path></svg>