<?xml version="1.0" standalone="no"?><!DOCTYPE svg PUBLIC "-//W3C//DTD SVG 1.1//EN" "http://www.w3.org/Graphics/SVG/1.1/DTD/svg11.dtd"><svg t="1559724308102" class="icon" style="" viewBox="0 0 1024 1024" version="1.1" xmlns="http://www.w3.org/2000/svg" p-id="2562" xmlns:xlink="http://www.w3.org/1999/xlink" width="200" height="200"><defs><style type="text/css"></style></defs><path d="M513.7 864.5c0-17.7-14.3-32-31.9-32H160.2c-17.6 0-31.9-14.3-31.9-32v-640c0-17.7 14.3-32 31.9-32h513.6c17.6 0 31.9 14.3 31.9 32v288c0 17.7 14.3 32 31.9 32 17.6 0 31.9-14.3 31.9-32v-320c0-35.3-28.6-64-63.8-64H128.3c-35.2 0-63.8 28.7-63.8 64v704c0 35.3 28.6 64 63.8 64h353.5c17.7 0 31.9-14.3 31.9-32z" p-id="2563"></path><path d="M927.5 895.5h-31v-127c0-35.3-28.7-64-64-64h-64v-96h64c17.7 0 32-14.3 32-32s-14.3-32-32-32h-190c-17.7 0-32 14.3-32 32s14.3 32 32 32h62v96h-64c-35.3 0-64 28.7-64 64v127h-32c-17.7 0-32 14.3-32 32s14.3 32 32 32h383c17.7 0 32-14.3 32-32s-14.3-32-32-32z m-287-127h192v127h-192v-127z" p-id="2564"></path><path d="M386.6 598.8v18.4c0 4.6 1.8 9 4.9 12.4 9.5 10 22.5 13.4 34 8.8 10.9-4.3 17.9-14.7 17.9-26.4v-18.4c0-4.6-1.8-9-4.9-12.4-9.5-10-22.5-13.4-34-8.8-10.8 4.3-17.9 14.7-17.9 26.4zM399.3 260.8l-2 1.4-59.3 78.4c-3.3 4.4-5.1 9.6-5.1 15.1 0 13.9 11.3 25.2 25.2 25.2H387v121.7c0 15.6 12.7 28.4 28.4 28.4s28.4-12.7 28.4-28.4V380.9h28c13.9 0 25.2-11.3 25.2-25.2 0-5.5-1.8-10.8-5.2-15.3l-57.2-74.7c-8.5-10.8-23.6-13-35.3-4.9z" p-id="2565"></path></svg>