<?xml version="1.0" standalone="no"?><!DOCTYPE svg PUBLIC "-//W3C//DTD SVG 1.1//EN" "http://www.w3.org/Graphics/SVG/1.1/DTD/svg11.dtd"><svg t="1562633639550" class="icon" viewBox="0 0 1024 1024" version="1.1" xmlns="http://www.w3.org/2000/svg" p-id="2739" xmlns:xlink="http://www.w3.org/1999/xlink" width="200" height="200"><defs><style type="text/css"></style></defs><path d="M1003.52 849.92H51.2V148.48H0v752.64h1003.52v-51.2z" p-id="2740"></path><path d="M947.2 445.44c-40.96 0-76.8 35.84-76.8 76.8h-81.92l-143.36-384c-5.12-10.24-15.36-15.36-25.6-15.36s-20.48 5.12-25.6 15.36L460.8 532.48 394.24 384c-5.12-5.12-10.24-10.24-20.48-10.24s-15.36 5.12-20.48 10.24L256 522.24H168.96c-15.36 0-25.6 10.24-25.6 25.6s10.24 25.6 25.6 25.6h102.4c10.24 0 15.36-5.12 20.48-10.24l76.8-112.64L450.56 614.4c5.12 10.24 15.36 15.36 20.48 15.36 10.24 0 20.48-5.12 20.48-15.36l128-384 128 337.92c5.12 10.24 15.36 15.36 25.6 15.36h117.76c15.36 15.36 35.84 25.6 56.32 25.6 40.96 0 76.8-35.84 76.8-76.8 0-51.2-35.84-87.04-76.8-87.04z" p-id="2741"></path></svg>