<?xml version="1.0" standalone="no"?><!DOCTYPE svg PUBLIC "-//W3C//DTD SVG 1.1//EN" "http://www.w3.org/Graphics/SVG/1.1/DTD/svg11.dtd"><svg t="1555291199975" class="icon" style="" viewBox="0 0 1024 1024" version="1.1" xmlns="http://www.w3.org/2000/svg" p-id="2000" xmlns:xlink="http://www.w3.org/1999/xlink" width="200" height="200"><defs><style type="text/css"></style></defs><path d="M729.777883 847.515382H177.700915c-0.729778 0-1.216296-0.486519-1.216297-1.216297V152.037059c0-0.729778 0.486519-1.216296 1.216297-1.216296h551.955339c0.608148 0 1.216296 0.486519 1.216296 1.216296v694.262026c0.12163 0.729778-0.486519 1.216296-1.094667 1.216297z" fill="#2A404C" p-id="2001"></path><path d="M206.405511 215.284476h496.005702v567.645563H206.405511z" fill="#FFFFFF" p-id="2002"></path><path d="M325.967455 415.730134l-84.410976-41.475709 3.52726-7.17615 78.207863 38.556599L413.90569 275.126262l96.573939 26.636893 54.003564 64.706972 97.182088-97.182088 5.594964 5.716593-103.263571 103.263571-58.017342-69.572158-88.789642-24.32593z" fill="#4E8FC5" p-id="2003"></path><path d="M243.259294 369.510868m-13.50089 0a13.500891 13.500891 0 1 0 27.001781 0 13.500891 13.500891 0 1 0-27.001781 0Z" fill="#2A404C" p-id="2004"></path><path d="M415.486875 278.775151m-13.500891 0a13.500891 13.500891 0 1 0 27.001782 0 13.500891 13.500891 0 1 0-27.001782 0Z" fill="#2A404C" p-id="2005"></path><path d="M564.726452 372.42998m-13.500891 0a13.500891 13.500891 0 1 0 27.001782 0 13.500891 13.500891 0 1 0-27.001782 0Z" fill="#2A404C" p-id="2006"></path><path d="M664.462763 272.20715m-13.500891 0a13.500891 13.500891 0 1 0 27.001782 0 13.500891 13.500891 0 1 0-27.001782 0Z" fill="#2A404C" p-id="2007"></path><path d="M324.629528 410.621689m-13.50089 0a13.500891 13.500891 0 1 0 27.001781 0 13.500891 13.500891 0 1 0-27.001781 0Z" fill="#2A404C" p-id="2008"></path><path d="M509.993111 305.655303m-13.500891 0a13.500891 13.500891 0 1 0 27.001782 0 13.500891 13.500891 0 1 0-27.001782 0Z" fill="#2A404C" p-id="2009"></path><path d="M577.984084 229.515144H345.793087c-2.797482 0-5.108445-2.310963-5.108445-5.108445v-46.462525c0-2.797482 2.310963-5.108445 5.108445-5.108445h232.190997c2.797482 0 5.108445 2.310963 5.108445 5.108445v46.462525c0 2.797482-2.310963 5.108445-5.108445 5.108445z" fill="#2A404C" p-id="2010"></path><path d="M577.984084 218.446846H345.793087c-2.797482 0-5.108445-2.310963-5.108445-5.108445v-46.462525c0-2.797482 2.310963-5.108445 5.108445-5.108445h232.190997c2.797482 0 5.108445 2.310963 5.108445 5.108445v46.462525c0 2.797482-2.310963 5.108445-5.108445 5.108445z" fill="#4E8FC5" p-id="2011"></path><path d="M376.930277 175.389951s36.245635-6.81126 36.245635-33.934671c0-27.123411 48.651859-22.623114 48.651859-22.623115v56.679416h-84.897494zM546.846894 175.389951s-36.245635-6.81126-36.245635-33.934671c0-27.123411-48.651859-22.623114-48.651859-22.623115v56.679416h84.897494z" fill="#4E8FC5" p-id="2012"></path><path d="M531.521558 569.956527h-294.343746c-1.216296 0-2.310963-0.973037-2.310963-2.310963V547.333413c0-1.216296 0.973037-2.310963 2.310963-2.310964h294.343746c1.216296 0 2.310963 0.973037 2.310964 2.310964v20.312151c0 1.337926-0.973037 2.310963-2.310964 2.310963zM531.521558 623.473572h-294.343746c-1.216296 0-2.310963-0.973037-2.310963-2.310964V600.850457c0-1.216296 0.973037-2.310963 2.310963-2.310963h294.343746c1.216296 0 2.310963 0.973037 2.310964 2.310963v20.312151c0 1.216296-0.973037 2.310963-2.310964 2.310964zM531.521558 676.868987h-294.343746c-1.216296 0-2.310963-0.973037-2.310963-2.310963v-20.312152c0-1.216296 0.973037-2.310963 2.310963-2.310963h294.343746c1.216296 0 2.310963 0.973037 2.310964 2.310963v20.312152c0 1.337926-0.973037 2.310963-2.310964 2.310963z" fill="#2A404C" p-id="2013"></path><path d="M801.661005 848.366789H603.28305c-15.446965 0-28.096449-12.649483-28.096448-28.096448v-386.782278c0-15.446965 12.649483-28.096449 28.096448-28.096449h198.377955c15.446965 0 28.096449 12.649483 28.096448 28.096449v386.782278c-0.12163 15.446965-12.649483 28.096449-28.096448 28.096448z" fill="#20628C" p-id="2014"></path><path d="M840.947381 848.366789H598.539494c-3.40563 0-6.081482-2.797482-6.081482-6.081482V428.379618c0-3.40563 2.797482-6.081482 6.081482-6.081483H840.825751c3.40563 0 6.081482 2.797482 6.081483 6.081483v413.905689c0.12163 3.284-2.675852 6.081482-5.959853 6.081482z" fill="#203740" p-id="2015"></path><path d="M628.095498 471.071624h183.295879v276.829077H628.095498z" fill="#FFFFFF" p-id="2016"></path><path d="M719.682623 798.377004m-25.177337 0a25.177337 25.177337 0 1 0 50.354674 0 25.177337 25.177337 0 1 0-50.354674 0Z" fill="#FFFFFF" p-id="2017"></path><path d="M712.992992 562.0506v-32.353486c-36.367265 3.770519-65.071861 33.326523-67.626084 70.058676h32.110227c2.432593-18.974225 16.906521-34.299561 35.515857-37.70519z" fill="#4E8FC5" p-id="2018"></path><path d="M761.766481 589.5389c1.824445 4.865186 2.919112 10.095261 2.919111 15.568595 0 16.784891-9.487112 31.380449-23.352892 38.678228 2.675852 10.21689 5.716593 21.285188 8.392446 31.380449 27.60993-11.311557 46.949044-38.434969 46.949043-70.058677 0-10.825039-2.310963-21.041929-6.324741-30.285782L761.766481 589.5389z" fill="#2A404C" p-id="2019"></path><path d="M720.898919 648.772538c-24.08267 0-43.665043-19.582373-43.665043-43.665043 0-1.824445 0.12163-3.52726 0.364889-5.230075h-32.110227c-0.12163 1.702815-0.243259 3.52726-0.243259 5.230075 0 41.840599 33.934672 75.77527 75.77527 75.77527 10.21689 0 19.947262-2.067704 28.704597-5.716593-2.675852-10.095261-5.716593-21.163559-8.392446-31.380449-6.081482 3.162371-13.014372 4.986816-20.433781 4.986815z" fill="#CC4A19" p-id="2020"></path></svg>