<?xml version="1.0" standalone="no"?><!DOCTYPE svg PUBLIC "-//W3C//DTD SVG 1.1//EN" "http://www.w3.org/Graphics/SVG/1.1/DTD/svg11.dtd"><svg t="1561597400175" class="icon" viewBox="0 0 1024 1024" version="1.1" xmlns="http://www.w3.org/2000/svg" p-id="4779" xmlns:xlink="http://www.w3.org/1999/xlink" width="200" height="200"><defs><style type="text/css"></style></defs><path d="M928.2 640h-64v-96.2c0-17.7-14.3-32-32-32-1.2 0-2.4 0.1-3.6 0.2H543.8v-63.8h192.3c17.7 0 32-14.3 32-32v-286c0-17.7-14.3-32-32-32H288c-17.7 0-32 14.3-32 32v286c0 17.7 14.3 32 32 32h191.8V512H192c-17.7 0-32 14.3-32 32v96H96.2c-17.7 0-32 14.3-32 32v224.3c0 17.7 14.3 32 32 32h191.1c17.7 0 32-14.3 32-32V672c0-17.7-14.3-32-32-32H224v-64h255.8v64H416c-17.7 0-32 14.3-32 32v224.3c0 17.7 14.3 32 32 32h192c17.7 0 32-14.3 32-32V672c0-17.7-14.3-32-32-32h-64.3v-64H800v64h-64c-17.7 0-32 14.3-32 32v224.3c0 17.7 14.3 32 32 32h192c17.7 0 32-14.3 32-32V672c0.2-17.7-14.1-32-31.8-32zM320 162.2h384.1v222H517c-1.7-0.3-3.4-0.4-5.2-0.4-1.8 0-3.5 0.1-5.2 0.4H320v-222z m-64.7 702.1H128.2V704h127.1v160.3z m320.8 0h-128V704h59.8c1.3 0.2 2.6 0.3 4 0.3s2.7-0.1 4-0.3h60.3v160.3z m320.1 0h-128V704h128v160.3z" p-id="4780" fill="#515151"></path></svg>