<?xml version="1.0" standalone="no"?><!DOCTYPE svg PUBLIC "-//W3C//DTD SVG 1.1//EN" "http://www.w3.org/Graphics/SVG/1.1/DTD/svg11.dtd"><svg t="1565052872719" class="icon" viewBox="0 0 1024 1024" version="1.1" xmlns="http://www.w3.org/2000/svg" p-id="3453" xmlns:xlink="http://www.w3.org/1999/xlink" width="200" height="200"><defs><style type="text/css"></style></defs><path d="M384 841.143q0-22.857-16-38.857t-38.857-16-38.857 16-16 38.857 16 38.857 38.857 16T368 880t16-38.857z m0-658.286Q384 160 368 144t-38.857-16-38.857 16-16 38.857 16 38.857 38.857 16 38.857-16 16-38.857zM749.714 256q0-22.857-16-38.857t-38.857-16-38.857 16T640 256t16 38.857 38.857 16 38.857-16 16-38.857z m54.857 0q0 29.714-14.857 55.143t-40 39.714q-1.143 164-129.143 236.572-38.857 21.714-116 46.285-73.142 22.857-96.857 40.572T384 731.429v14.857Q409.143 760.57 424 786t14.857 55.143q0 45.714-32 77.714t-77.714 32-77.714-32-32-77.714q0-29.714 14.857-55.143t40-39.714V277.714q-25.143-14.285-40-39.714t-14.857-55.143q0-45.714 32-77.714t77.714-32 77.714 32 32 77.714q0 29.714-14.857 55.143t-40 39.714v284q30.857-14.857 88-32.571 31.429-9.714 50-16.857t40.286-17.715T596 472t23.143-29.143 16-39.714T640 350.857q-25.143-14.286-40-39.714T585.143 256q0-45.714 32-77.714t77.714-32 77.714 32 32 77.714z" fill="#195C97" p-id="3454"></path></svg>