<?xml version="1.0" standalone="no"?><!DOCTYPE svg PUBLIC "-//W3C//DTD SVG 1.1//EN" "http://www.w3.org/Graphics/SVG/1.1/DTD/svg11.dtd"><svg t="1567058952271" class="icon" viewBox="0 0 1024 1024" version="1.1" xmlns="http://www.w3.org/2000/svg" p-id="22045" xmlns:xlink="http://www.w3.org/1999/xlink" width="200" height="200"><defs><style type="text/css"></style></defs><path d="M910.222222 682.666667h-284.444444a56.888889 56.888889 0 0 1 0-113.777778h284.444444a56.888889 56.888889 0 0 1 0 113.777778z m0-227.555556h-284.444444a56.888889 56.888889 0 0 1 0-113.777778h284.444444a56.888889 56.888889 0 0 1 0 113.777778z m0-227.555555h-284.444444a56.888889 56.888889 0 0 1 0-113.777778h284.444444a56.888889 56.888889 0 0 1 0 113.777778zM398.222222 967.111111H170.666667a113.777778 113.777778 0 0 1-113.777778-113.777778v-170.666666a113.777778 113.777778 0 0 1 113.777778-113.777778h227.555555a113.777778 113.777778 0 0 1 113.777778 113.777778v170.666666a113.777778 113.777778 0 0 1-113.777778 113.777778z m0-512H170.666667a113.777778 113.777778 0 0 1-113.777778-113.777778V170.666667a113.777778 113.777778 0 0 1 113.777778-113.777778h227.555555a113.777778 113.777778 0 0 1 113.777778 113.777778v170.666666a113.777778 113.777778 0 0 1-113.777778 113.777778z m227.555556 341.333333h284.444444a56.888889 56.888889 0 0 1 0 113.777778h-284.444444a56.888889 56.888889 0 0 1 0-113.777778z" fill="#0078D7" p-id="22046"></path></svg>