<?xml version="1.0" standalone="no"?><!DOCTYPE svg PUBLIC "-//W3C//DTD SVG 1.1//EN" "http://www.w3.org/Graphics/SVG/1.1/DTD/svg11.dtd"><svg t="1559723920858" class="icon" style="" viewBox="0 0 1024 1024" version="1.1" xmlns="http://www.w3.org/2000/svg" p-id="2215" xmlns:xlink="http://www.w3.org/1999/xlink" width="200" height="200"><defs><style type="text/css"></style></defs><path d="M832.00429 896.007676h-639.997742c-35.349521 0-64.00158 28.652059-64.001581 64.001581 0 35.338684 28.652059 63.990743 64.001581 63.990743h639.997742c35.349521 0 64.00158-28.652059 64.00158-63.990743 0-35.349521-28.652059-64.00158-64.00158-64.001581zM960.009257 599.045328H64.00158C28.652059 599.045328 0 627.699194 0 663.046909c0 35.338684 28.652059 63.990743 64.00158 63.990743h896.007677c35.336878 0 63.990743-28.652059 63.990743-63.990743 0-35.347715-28.653866-64.00158-63.990743-64.001581zM960.009257 0H64.00158C28.652059 0 0 28.653866 0 64.003387s28.652059 64.00158 64.00158 64.00158h896.007677c35.336878 0 63.990743-28.652059 63.990743-64.00158C1024 28.653866 995.346134 0 960.009257 0zM832.00429 296.962348h-639.997742c-35.349521 0-64.00158 28.653866-64.001581 64.001581 0 35.349521 28.652059 64.00158 64.001581 64.00158h639.997742c35.349521 0 64.00158-28.652059 64.00158-64.00158 0-35.349521-28.652059-64.00158-64.00158-64.001581z" fill="#231815" p-id="2216"></path></svg>